<?xml version="1.0" encoding="utf-8"?>
<!-- Generator: Adobe Illustrator 25.3.1, SVG Export Plug-In . SVG Version: 6.00 Build 0)  -->
<svg version="1.1" id="Layer_1" xmlns="http://www.w3.org/2000/svg" xmlns:xlink="http://www.w3.org/1999/xlink" x="0px" y="0px"
	 viewBox="0 0 792 612" style="enable-background:new 0 0 792 612;" xml:space="preserve">
<style type="text/css">
	.st0{fill:none;}
	.st1{fill:#30AFE4;}
	.st2{fill:#8AD6F5;}
	.st3{fill:#70B8E6;}
	.st4{fill:#66A7D0;}
	.st5{fill:#62A0C8;}
	.st6{fill:#5E99BF;}
	.st7{fill:#5992B6;}
	.st8{fill:#E2E3E4;}
</style>
<path class="st0" d="M637.97,191.05c-0.11-0.03-0.21-0.05-0.32-0.08"/>
<path class="st0" d="M637.97,191.05c-0.11-0.03-0.21-0.05-0.32-0.08"/>
<path class="st1" d="M240.96,544.73C151.72,499.23,86.52,413.37,69.39,311.17c20.29,27.76,44.91,52.14,72.91,72.17
	c-20.13-42.09-31.43-89.22-31.43-138.99c0-11.98,0.66-23.83,1.95-35.47c18.26,49.74,48.45,93.76,87.11,128.54
	c-23.64-44.83-37.02-95.95-37.02-150.15c0-29.98,4.09-59,11.74-86.53c15.6,57.1,43.94,108.51,81.64,150.57
	c3.59,5.59,7.49,11.03,11.77,16.31c-35.04-27.02-65.92-60.09-90.91-98.3c0.84,31.03,5.99,62.38,15.75,93.39
	c17.71,56.02,48.58,104.36,88.32,142.76c-52.41-22.98-98.82-58.34-134.42-103.65c2.43,12.48,5.59,24.94,9.5,37.31
	c16.23,51.46,43.59,96.37,78.72,133.13c-36.26-11.32-70.35-28.26-100.96-50.16C159.72,471.87,196.74,513.43,240.96,544.73z"/>
<path class="st2" d="M686.74,342.07c-0.69,7.15-1.74,14.2-3.17,21.14c-4.91,24.12-14.2,46.71-27.05,66.95
	c-8.42,13.35-18.42,25.68-29.69,36.76c-7.55,7.47-15.73,14.36-24.38,20.61c-12.4,8.95-25.86,16.65-40.16,22.77l-1.56-147.77
	c0.42,0.26,0.84,0.55,1.27,0.82c4.22,2.64,8.66,4.96,13.3,6.91c2.51,1.08,5.07,2.03,7.68,2.88c9.29,3.03,19.18,4.67,29.45,4.67
	C642.49,377.8,669.3,363.84,686.74,342.07z"/>
<path class="st2" d="M577.15,517.84c-4.8,3.51-9.68,6.89-14.67,10.11l-0.05-7.12C567.38,519.95,572.29,518.97,577.15,517.84z"/>
<path class="st3" d="M562.48,527.94c-19.84,12.9-41.22,23.64-63.75,31.98c-34.75,12.82-72.33,19.82-111.54,19.82
	c-52.64,0-102.33-12.61-146.22-35.02c-44.23-31.3-81.25-72.86-106.9-122.63c30.61,21.9,64.7,38.84,100.96,50.16
	c-35.12-36.76-62.49-81.67-78.72-133.13c-3.91-12.38-7.07-24.83-9.5-37.31c35.6,45.31,82.01,80.67,134.42,103.65
	c-39.74-38.39-70.61-86.74-88.32-142.76c-9.76-31.01-14.91-62.35-15.75-93.39c24.99,38.21,55.86,71.27,90.91,98.3
	c32.62,40.61,84.68,71.93,146.93,87.37c15.38,3.8,31.4,6.62,47.89,8.39c13.01,1.4,26.31,2.11,39.85,2.11c2.06,0,4.09-0.03,6.15-0.05
	c17.1-0.26,33.83-1.69,50.01-4.17c0.61,0.42,1.21,0.84,1.85,1.21v0.03l1.56,147.77c-15.04,6.52-31.03,11.35-47.68,14.28
	c1.11,0.03,2.22,0.03,3.32,0.03c15.17,0,30.06-1.29,44.49-3.77L562.48,527.94z"/>
<path class="st0" d="M517.33,282.67c0,1.13,0.03,2.27,0.05,3.4c0.03,0.69,0.05,1.35,0.11,2.03c0.08,1.42,0.18,2.88,0.34,4.3
	c0.05,0.66,0.13,1.32,0.24,1.95c0.05,0.58,0.11,1.16,0.21,1.72c0.08,0.71,0.18,1.4,0.32,2.08c0.05,0.32,0.08,0.63,0.16,0.92
	c0.13,0.77,0.26,1.5,0.42,2.27c0.58,3.01,1.32,5.99,2.22,8.89c0.21,0.71,0.45,1.45,0.69,2.16c0.24,0.71,0.47,1.43,0.74,2.14
	c0.18,0.58,0.4,1.16,0.63,1.74c0.18,0.47,0.34,0.92,0.53,1.4c0.16,0.37,0.29,0.71,0.45,1.08c0.5,1.21,1.03,2.43,1.58,3.62
	c0.74,1.66,1.56,3.32,2.45,4.96c0.61,1.16,1.27,2.32,1.95,3.48c0.71,1.24,1.48,2.45,2.27,3.67c0.03,0.03,0.05,0.08,0.08,0.11
	c0.82,1.24,1.64,2.48,2.51,3.67c0.61,0.82,1.21,1.64,1.82,2.43c0.32,0.45,0.66,0.87,1,1.29c0.71,0.9,1.45,1.77,2.19,2.64
	c0.18,0.24,0.4,0.47,0.61,0.69c0.92,1.03,1.85,2.06,2.8,3.06c0.03,0.05,0.08,0.11,0.13,0.13c0.58,0.61,1.13,1.19,1.74,1.77
	c0.24,0.26,0.5,0.53,0.77,0.77c0.92,0.9,1.85,1.77,2.82,2.61c0.61,0.55,1.27,1.11,1.9,1.66c2.48,2.14,5.12,4.12,7.84,5.96
	c-16.18,2.48-32.91,3.91-50.01,4.17c-2.06,0.03-4.09,0.05-6.15,0.05c-13.54,0-26.84-0.71-39.85-2.11
	c-16.49-1.77-32.51-4.59-47.89-8.39c-62.25-15.44-114.31-46.76-146.93-87.37c-4.27-5.28-8.18-10.71-11.77-16.31
	c1.4,1.58,2.82,3.14,4.25,4.7c0.05,0.03,0.08,0.08,0.11,0.11c2.35-42.67,15.36-82.57,36.47-117.11
	c16.41-26.92,37.79-50.61,62.83-69.8c5.59-4.33,11.37-8.42,17.34-12.24c35.33-21.16,76.58-33.51,120.67-33.93
	c0.82-0.03,1.61-0.03,2.43-0.03c18.92,0,37.31,2.19,54.97,6.33c0.63,0.13,1.27,0.29,1.9,0.45l80.4,161.18
	c-8.02-2.22-16.49-3.4-25.23-3.4c-24.78,0-47.37,9.47-64.28,25.02C529.2,229.97,517.33,254.93,517.33,282.67z"/>
<path class="st0" d="M557.25,29.79c-0.63-0.16-1.27-0.32-1.9-0.45l0.98-1.37L557.25,29.79z"/>
<path class="st0" d="M377.29,56.97c-5.96,3.83-11.74,7.92-17.34,12.24c-25.04,19.18-46.42,42.88-62.83,69.8
	c-21.11,34.54-34.12,74.44-36.47,117.11c-0.03-0.03-0.05-0.08-0.11-0.11c1.27-44.25,14.49-85.5,36.6-120.62
	c16.49-26.23,37.89-49,62.94-67.08C365.65,64.28,371.37,60.51,377.29,56.97z"/>
<path class="st4" d="M517.33,282.67c0,1.13,0.03,2.27,0.05,3.4c0.03,0.69,0.05,1.35,0.11,2.03c0.08,1.42,0.18,2.88,0.34,4.3
	c0.05,0.66,0.13,1.32,0.24,1.95c0.05,0.58,0.11,1.16,0.21,1.72c0.08,0.71,0.18,1.4,0.32,2.08c0.05,0.32,0.08,0.63,0.16,0.92
	c0.13,0.77,0.26,1.5,0.42,2.27c0.58,3.01,1.32,5.99,2.22,8.89c0.21,0.71,0.45,1.45,0.69,2.16c0.24,0.71,0.47,1.43,0.74,2.14
	c0.18,0.58,0.4,1.16,0.63,1.74c0.18,0.47,0.34,0.92,0.53,1.4c0.16,0.37,0.29,0.71,0.45,1.08c0.5,1.21,1.03,2.43,1.58,3.62
	c0.74,1.66,1.56,3.32,2.45,4.96c0.61,1.16,1.27,2.32,1.95,3.48c0.71,1.24,1.48,2.45,2.27,3.67c0.03,0.03,0.05,0.08,0.08,0.11
	c0.82,1.24,1.64,2.48,2.51,3.67c0.61,0.82,1.21,1.64,1.82,2.43c0.32,0.45,0.66,0.87,1,1.29c0.71,0.9,1.45,1.77,2.19,2.64
	c0.18,0.24,0.4,0.47,0.61,0.69c0.92,1.03,1.85,2.06,2.8,3.06c0.03,0.05,0.08,0.11,0.13,0.13c0.58,0.61,1.13,1.19,1.74,1.77
	c0.24,0.26,0.5,0.53,0.77,0.77c0.92,0.9,1.85,1.77,2.82,2.61c0.61,0.55,1.27,1.11,1.9,1.66c2.48,2.14,5.12,4.12,7.84,5.96
	c-16.18,2.48-32.91,3.91-50.01,4.17c-2.06,0.03-4.09,0.05-6.15,0.05c-13.54,0-26.84-0.71-39.85-2.11
	c-16.49-1.77-32.51-4.59-47.89-8.39c-62.25-15.44-114.31-46.76-146.93-87.37c-4.27-5.28-8.18-10.71-11.77-16.31
	c1.4,1.58,2.82,3.14,4.25,4.7c1.27-44.25,14.49-85.5,36.6-120.62c16.49-26.23,37.89-49,62.94-67.08
	c5.57-4.04,11.29-7.81,17.21-11.35c35.33-21.16,76.58-33.51,120.67-33.93c0.82-0.03,1.61-0.03,2.43-0.03
	c18.92,0,37.31,2.19,54.97,6.33l0.98-1.37l0.92,1.82l80.4,161.18c-8.02-2.22-16.49-3.4-25.23-3.4c-24.78,0-47.37,9.47-64.28,25.02
	C529.2,229.97,517.33,254.93,517.33,282.67z"/>
<path class="st5" d="M517.33,282.67c0,29.13,13.09,55.2,33.72,72.65c2.48,2.14,5.12,4.12,7.84,5.96
	c-16.18,2.48-32.91,3.91-50.01,4.17c-2.06,0.03-4.09,0.05-6.15,0.05c-13.54,0-26.84-0.71-39.85-2.11
	c-16.49-1.77-32.51-4.59-47.89-8.39c-64.44-37.15-111.01-110.25-117.19-197.14c-0.48-6.33-0.69-12.64-0.69-18.84
	c0-1.21,0-2.43,0.03-3.62c16.49-26.23,37.89-49,62.94-67.08c5.57-4.04,11.29-7.81,17.21-11.35c35.33-21.16,76.58-33.51,120.67-33.93
	c0.82-0.03,1.61-0.03,2.43-0.03c18.92,0,37.31,2.19,54.97,6.33l0.98-1.37l0.92,1.82l80.4,161.18c-8.02-2.22-16.49-3.4-25.23-3.4
	c-24.78,0-47.37,9.47-64.28,25.02C529.2,229.97,517.33,254.93,517.33,282.67z"/>
<path class="st6" d="M517.33,282.67c0,29.13,13.09,55.2,33.72,72.65c2.48,2.14,5.12,4.12,7.84,5.96
	c-16.18,2.48-32.91,3.91-50.01,4.17c-2.06,0.03-4.09,0.05-6.15,0.05c-13.54,0-26.84-0.71-39.85-2.11
	c-58.29-44.7-99.93-123.21-106.45-215.01c-1.95-27.31-0.63-53.91,3.51-79.16c0.03-0.32,0.08-0.61,0.13-0.9
	c5.57-4.04,11.29-7.81,17.21-11.35c35.33-21.16,76.58-33.51,120.67-33.93c0.82-0.03,1.61-0.03,2.43-0.03
	c18.92,0,37.31,2.19,54.97,6.33l0.98-1.37l0.92,1.82l80.4,161.18c-8.02-2.22-16.49-3.4-25.23-3.4c-24.78,0-47.37,9.47-64.28,25.02
	C529.2,229.97,517.33,254.93,517.33,282.67z"/>
<path class="st2" d="M637.66,190.97c-8.02-2.22-16.49-3.4-25.23-3.4c-19.76,0-38.16,6.04-53.36,16.39l-1.82-174.16L637.66,190.97z"
	/>
<path class="st7" d="M551.05,355.31c2.48,2.14,5.12,4.12,7.84,5.96c-16.18,2.48-32.91,3.91-50.01,4.17
	c-57.05-44.73-92.41-106.95-92.41-175.72c0-64.28,30.9-122.81,81.49-166.69c0.82-0.03,1.61-0.03,2.43-0.03
	c18.92,0,37.31,2.19,54.97,6.33l0.98-1.37l0.92,1.82l1.82,174.16c-3.85,2.59-7.52,5.49-10.92,8.63
	c-18.95,17.39-30.82,42.35-30.82,70.09C517.33,311.8,530.42,337.87,551.05,355.31z"/>
<circle class="st8" cx="516.52" cy="131.83" r="21.75"/>
<polyline class="st0" points="559.07,203.95 560.73,362.49 560.73,362.52 "/>
<line class="st0" x1="563.61" y1="635" x2="562.48" y2="527.94"/>
<line class="st0" x1="562.42" y1="520.82" x2="562.29" y2="510.29"/>
</svg>
